<svg xmlns="http://www.w3.org/2000/svg" viewBox="0 0 128 128" role="img" aria-label="Bitcoin">
  <circle cx="64" cy="64" r="58" fill="#F7931A"/>
  <path fill="#fff" d="M77.2 60.1c3.3-2.1 5.2-5.3 4.7-10.7-.7-7.4-7.1-9.9-15.2-10.6v-9.1h-5.5v8.8c-1.5 0-3.1.1-4.6.1v-8.9h-5.5v9c-1.2 0-2.3.1-3.4.1v-.1h-7.6v5.9s4.1-.1 4 .1c2.3 0 3 1.4 3.2 2.6v10.3c.1 0 .2 0 .3 0-.1 0-.2 0-.3 0v14.5c-.1.8-.6 2.1-2.4 2.1.1.1-4 .1-4 .1l-1.1 6.6h7.2c1.3 0 2.6 0 3.8.1v9.2h5.5V81c1.5 0 3.1.1 4.6.1v9.1h5.5V81c9.2-.5 15.7-2.8 16.5-11.9.7-7.3-2.8-10.4-8-11.4zm-16-15.3c3.4 0 14 .9 14 6.8 0 5.8-10.6 6.8-14 6.8V44.8zm0 30.2V60.7c4.1 0 16.9-1.2 16.9 7.2 0 8.4-12.8 7.1-16.9 7.1z"/>
</svg>
