<svg xmlns="http://www.w3.org/2000/svg" width="1496" height="830" viewBox="0 0 1496 830" role="img" aria-labelledby="title desc">
  <title id="title">OpenLinks V3 logo thickness variants</title>
  <desc id="desc">V3 comparison grid for thicker equal-weight stroke candidates using the inset centered geometry family.</desc>
  <rect width="1496" height="830" fill="#f1f4f9" />
  <g>
    <rect x="28" y="28" width="360" height="258" rx="16" fill="#ffffff" stroke="#dce2ec" />
    <text x="46" y="59" font-size="14" font-weight="700" fill="#161d2b" font-family="'Space Grotesk', 'Avenir Next', sans-serif">c6 / l6</text>
    <text x="46" y="78" font-size="12" fill="#304159" font-family="'Manrope', 'Segoe UI', sans-serif">V3 inset / centerline-2x / centered</text>
    <text x="46" y="92" font-size="11" fill="#b25d18" font-family="'Manrope', 'Segoe UI', sans-serif">baseline reference</text>
    <rect x="40" y="100" width="336" height="128" rx="10" fill="#f7f9fc" stroke="#e5eaf2" />
    <rect x="52" y="110" width="166" height="108" rx="8" fill="#ffffff" stroke="#e5eaf2" />
    <g transform="translate(85 120) scale(0.84)">
      <circle cx="50" cy="50" r="38" fill="none" stroke="#111111" stroke-width="6" />
      <path d="M37.478 24.956 V75.044 H62.522" fill="none" stroke="#111111" stroke-width="6" stroke-linecap="round" stroke-linejoin="round" />
    </g>
    <text x="334" y="122" font-size="11" fill="#4f5968" font-family="'Manrope', 'Segoe UI', sans-serif">24px</text>
    <g transform="translate(270 109) scale(0.24)">
      <circle cx="50" cy="50" r="38" fill="none" stroke="#111111" stroke-width="6" />
      <path d="M37.478 24.956 V75.044 H62.522" fill="none" stroke="#111111" stroke-width="6" stroke-linecap="round" stroke-linejoin="round" />
    </g>
    <text x="334" y="158" font-size="11" fill="#4f5968" font-family="'Manrope', 'Segoe UI', sans-serif">48px</text>
    <g transform="translate(258 145) scale(0.48)">
      <circle cx="50" cy="50" r="38" fill="none" stroke="#111111" stroke-width="6" />
      <path d="M37.478 24.956 V75.044 H62.522" fill="none" stroke="#111111" stroke-width="6" stroke-linecap="round" stroke-linejoin="round" />
    </g>
    <text x="334" y="194" font-size="11" fill="#4f5968" font-family="'Manrope', 'Segoe UI', sans-serif">96px</text>
    <g transform="translate(234 181) scale(0.96)">
      <circle cx="50" cy="50" r="38" fill="none" stroke="#111111" stroke-width="6" />
      <path d="M37.478 24.956 V75.044 H62.522" fill="none" stroke="#111111" stroke-width="6" stroke-linecap="round" stroke-linejoin="round" />
    </g>
    <text x="46" y="248" font-size="11" fill="#4f5968" font-family="'Manrope', 'Segoe UI', sans-serif">strokes c:6 l:6</text>
    <text x="46" y="262" font-size="11" fill="#4f5968" font-family="'Manrope', 'Segoe UI', sans-serif">usable r:32.0 inset r:28.0</text>
  </g>
  <g>
    <rect x="388" y="28" width="360" height="258" rx="16" fill="#ffffff" stroke="#dce2ec" />
    <text x="406" y="59" font-size="14" font-weight="700" fill="#161d2b" font-family="'Space Grotesk', 'Avenir Next', sans-serif">c7 / l7</text>
    <text x="406" y="78" font-size="12" fill="#304159" font-family="'Manrope', 'Segoe UI', sans-serif">V3 inset / centerline-2x / centered</text>
    <rect x="400" y="100" width="336" height="128" rx="10" fill="#f7f9fc" stroke="#e5eaf2" />
    <rect x="412" y="110" width="166" height="108" rx="8" fill="#ffffff" stroke="#e5eaf2" />
    <g transform="translate(445 120) scale(0.84)">
      <circle cx="50" cy="50" r="38" fill="none" stroke="#111111" stroke-width="7" />
      <path d="M37.9252 25.8505 V74.1495 H62.0748" fill="none" stroke="#111111" stroke-width="7" stroke-linecap="round" stroke-linejoin="round" />
    </g>
    <text x="694" y="122" font-size="11" fill="#4f5968" font-family="'Manrope', 'Segoe UI', sans-serif">24px</text>
    <g transform="translate(630 109) scale(0.24)">
      <circle cx="50" cy="50" r="38" fill="none" stroke="#111111" stroke-width="7" />
      <path d="M37.9252 25.8505 V74.1495 H62.0748" fill="none" stroke="#111111" stroke-width="7" stroke-linecap="round" stroke-linejoin="round" />
    </g>
    <text x="694" y="158" font-size="11" fill="#4f5968" font-family="'Manrope', 'Segoe UI', sans-serif">48px</text>
    <g transform="translate(618 145) scale(0.48)">
      <circle cx="50" cy="50" r="38" fill="none" stroke="#111111" stroke-width="7" />
      <path d="M37.9252 25.8505 V74.1495 H62.0748" fill="none" stroke="#111111" stroke-width="7" stroke-linecap="round" stroke-linejoin="round" />
    </g>
    <text x="694" y="194" font-size="11" fill="#4f5968" font-family="'Manrope', 'Segoe UI', sans-serif">96px</text>
    <g transform="translate(594 181) scale(0.96)">
      <circle cx="50" cy="50" r="38" fill="none" stroke="#111111" stroke-width="7" />
      <path d="M37.9252 25.8505 V74.1495 H62.0748" fill="none" stroke="#111111" stroke-width="7" stroke-linecap="round" stroke-linejoin="round" />
    </g>
    <text x="406" y="248" font-size="11" fill="#4f5968" font-family="'Manrope', 'Segoe UI', sans-serif">strokes c:7 l:7</text>
    <text x="406" y="262" font-size="11" fill="#4f5968" font-family="'Manrope', 'Segoe UI', sans-serif">usable r:31.0 inset r:27.0</text>
  </g>
  <g>
    <rect x="748" y="28" width="360" height="258" rx="16" fill="#ffffff" stroke="#dce2ec" />
    <text x="766" y="59" font-size="14" font-weight="700" fill="#161d2b" font-family="'Space Grotesk', 'Avenir Next', sans-serif">c8 / l8</text>
    <text x="766" y="78" font-size="12" fill="#304159" font-family="'Manrope', 'Segoe UI', sans-serif">V3 inset / centerline-2x / centered</text>
    <rect x="760" y="100" width="336" height="128" rx="10" fill="#f7f9fc" stroke="#e5eaf2" />
    <rect x="772" y="110" width="166" height="108" rx="8" fill="#ffffff" stroke="#e5eaf2" />
    <g transform="translate(805 120) scale(0.84)">
      <circle cx="50" cy="50" r="38" fill="none" stroke="#111111" stroke-width="8" />
      <path d="M38.3724 26.7449 V73.2551 H61.6276" fill="none" stroke="#111111" stroke-width="8" stroke-linecap="round" stroke-linejoin="round" />
    </g>
    <text x="1054" y="122" font-size="11" fill="#4f5968" font-family="'Manrope', 'Segoe UI', sans-serif">24px</text>
    <g transform="translate(990 109) scale(0.24)">
      <circle cx="50" cy="50" r="38" fill="none" stroke="#111111" stroke-width="8" />
      <path d="M38.3724 26.7449 V73.2551 H61.6276" fill="none" stroke="#111111" stroke-width="8" stroke-linecap="round" stroke-linejoin="round" />
    </g>
    <text x="1054" y="158" font-size="11" fill="#4f5968" font-family="'Manrope', 'Segoe UI', sans-serif">48px</text>
    <g transform="translate(978 145) scale(0.48)">
      <circle cx="50" cy="50" r="38" fill="none" stroke="#111111" stroke-width="8" />
      <path d="M38.3724 26.7449 V73.2551 H61.6276" fill="none" stroke="#111111" stroke-width="8" stroke-linecap="round" stroke-linejoin="round" />
    </g>
    <text x="1054" y="194" font-size="11" fill="#4f5968" font-family="'Manrope', 'Segoe UI', sans-serif">96px</text>
    <g transform="translate(954 181) scale(0.96)">
      <circle cx="50" cy="50" r="38" fill="none" stroke="#111111" stroke-width="8" />
      <path d="M38.3724 26.7449 V73.2551 H61.6276" fill="none" stroke="#111111" stroke-width="8" stroke-linecap="round" stroke-linejoin="round" />
    </g>
    <text x="766" y="248" font-size="11" fill="#4f5968" font-family="'Manrope', 'Segoe UI', sans-serif">strokes c:8 l:8</text>
    <text x="766" y="262" font-size="11" fill="#4f5968" font-family="'Manrope', 'Segoe UI', sans-serif">usable r:30.0 inset r:26.0</text>
  </g>
  <g>
    <rect x="1108" y="28" width="360" height="258" rx="16" fill="#ffffff" stroke="#dce2ec" />
    <text x="1126" y="59" font-size="14" font-weight="700" fill="#161d2b" font-family="'Space Grotesk', 'Avenir Next', sans-serif">c8.5 / l8.5</text>
    <text x="1126" y="78" font-size="12" fill="#304159" font-family="'Manrope', 'Segoe UI', sans-serif">V3 inset / centerline-2x / centered</text>
    <text x="1126" y="92" font-size="11" fill="#b25d18" font-family="'Manrope', 'Segoe UI', sans-serif">selected winner</text>
    <rect x="1120" y="100" width="336" height="128" rx="10" fill="#f7f9fc" stroke="#e5eaf2" />
    <rect x="1132" y="110" width="166" height="108" rx="8" fill="#ffffff" stroke="#e5eaf2" />
    <g transform="translate(1165 120) scale(0.84)">
      <circle cx="50" cy="50" r="38" fill="none" stroke="#111111" stroke-width="8.5" />
      <path d="M38.5961 27.1921 V72.8079 H61.4039" fill="none" stroke="#111111" stroke-width="8.5" stroke-linecap="round" stroke-linejoin="round" />
    </g>
    <text x="1414" y="122" font-size="11" fill="#4f5968" font-family="'Manrope', 'Segoe UI', sans-serif">24px</text>
    <g transform="translate(1350 109) scale(0.24)">
      <circle cx="50" cy="50" r="38" fill="none" stroke="#111111" stroke-width="8.5" />
      <path d="M38.5961 27.1921 V72.8079 H61.4039" fill="none" stroke="#111111" stroke-width="8.5" stroke-linecap="round" stroke-linejoin="round" />
    </g>
    <text x="1414" y="158" font-size="11" fill="#4f5968" font-family="'Manrope', 'Segoe UI', sans-serif">48px</text>
    <g transform="translate(1338 145) scale(0.48)">
      <circle cx="50" cy="50" r="38" fill="none" stroke="#111111" stroke-width="8.5" />
      <path d="M38.5961 27.1921 V72.8079 H61.4039" fill="none" stroke="#111111" stroke-width="8.5" stroke-linecap="round" stroke-linejoin="round" />
    </g>
    <text x="1414" y="194" font-size="11" fill="#4f5968" font-family="'Manrope', 'Segoe UI', sans-serif">96px</text>
    <g transform="translate(1314 181) scale(0.96)">
      <circle cx="50" cy="50" r="38" fill="none" stroke="#111111" stroke-width="8.5" />
      <path d="M38.5961 27.1921 V72.8079 H61.4039" fill="none" stroke="#111111" stroke-width="8.5" stroke-linecap="round" stroke-linejoin="round" />
    </g>
    <text x="1126" y="248" font-size="11" fill="#4f5968" font-family="'Manrope', 'Segoe UI', sans-serif">strokes c:8.5 l:8.5</text>
    <text x="1126" y="262" font-size="11" fill="#4f5968" font-family="'Manrope', 'Segoe UI', sans-serif">usable r:29.5 inset r:25.5</text>
  </g>
  <g>
    <rect x="28" y="286" width="360" height="258" rx="16" fill="#ffffff" stroke="#dce2ec" />
    <text x="46" y="317" font-size="14" font-weight="700" fill="#161d2b" font-family="'Space Grotesk', 'Avenir Next', sans-serif">c9 / l9</text>
    <text x="46" y="336" font-size="12" fill="#304159" font-family="'Manrope', 'Segoe UI', sans-serif">V3 inset / centerline-2x / centered</text>
    <rect x="40" y="358" width="336" height="128" rx="10" fill="#f7f9fc" stroke="#e5eaf2" />
    <rect x="52" y="368" width="166" height="108" rx="8" fill="#ffffff" stroke="#e5eaf2" />
    <g transform="translate(85 378) scale(0.84)">
      <circle cx="50" cy="50" r="38" fill="none" stroke="#111111" stroke-width="9" />
      <path d="M38.8197 27.6393 V72.3607 H61.1803" fill="none" stroke="#111111" stroke-width="9" stroke-linecap="round" stroke-linejoin="round" />
    </g>
    <text x="334" y="380" font-size="11" fill="#4f5968" font-family="'Manrope', 'Segoe UI', sans-serif">24px</text>
    <g transform="translate(270 367) scale(0.24)">
      <circle cx="50" cy="50" r="38" fill="none" stroke="#111111" stroke-width="9" />
      <path d="M38.8197 27.6393 V72.3607 H61.1803" fill="none" stroke="#111111" stroke-width="9" stroke-linecap="round" stroke-linejoin="round" />
    </g>
    <text x="334" y="416" font-size="11" fill="#4f5968" font-family="'Manrope', 'Segoe UI', sans-serif">48px</text>
    <g transform="translate(258 403) scale(0.48)">
      <circle cx="50" cy="50" r="38" fill="none" stroke="#111111" stroke-width="9" />
      <path d="M38.8197 27.6393 V72.3607 H61.1803" fill="none" stroke="#111111" stroke-width="9" stroke-linecap="round" stroke-linejoin="round" />
    </g>
    <text x="334" y="452" font-size="11" fill="#4f5968" font-family="'Manrope', 'Segoe UI', sans-serif">96px</text>
    <g transform="translate(234 439) scale(0.96)">
      <circle cx="50" cy="50" r="38" fill="none" stroke="#111111" stroke-width="9" />
      <path d="M38.8197 27.6393 V72.3607 H61.1803" fill="none" stroke="#111111" stroke-width="9" stroke-linecap="round" stroke-linejoin="round" />
    </g>
    <text x="46" y="506" font-size="11" fill="#4f5968" font-family="'Manrope', 'Segoe UI', sans-serif">strokes c:9 l:9</text>
    <text x="46" y="520" font-size="11" fill="#4f5968" font-family="'Manrope', 'Segoe UI', sans-serif">usable r:29.0 inset r:25.0</text>
  </g>
  <g>
    <rect x="388" y="286" width="360" height="258" rx="16" fill="#ffffff" stroke="#dce2ec" />
    <text x="406" y="317" font-size="14" font-weight="700" fill="#161d2b" font-family="'Space Grotesk', 'Avenir Next', sans-serif">c10 / l10</text>
    <text x="406" y="336" font-size="12" fill="#304159" font-family="'Manrope', 'Segoe UI', sans-serif">V3 inset / centerline-2x / centered</text>
    <rect x="400" y="358" width="336" height="128" rx="10" fill="#f7f9fc" stroke="#e5eaf2" />
    <rect x="412" y="368" width="166" height="108" rx="8" fill="#ffffff" stroke="#e5eaf2" />
    <g transform="translate(445 378) scale(0.84)">
      <circle cx="50" cy="50" r="38" fill="none" stroke="#111111" stroke-width="10" />
      <path d="M39.2669 28.5337 V71.4663 H60.7331" fill="none" stroke="#111111" stroke-width="10" stroke-linecap="round" stroke-linejoin="round" />
    </g>
    <text x="694" y="380" font-size="11" fill="#4f5968" font-family="'Manrope', 'Segoe UI', sans-serif">24px</text>
    <g transform="translate(630 367) scale(0.24)">
      <circle cx="50" cy="50" r="38" fill="none" stroke="#111111" stroke-width="10" />
      <path d="M39.2669 28.5337 V71.4663 H60.7331" fill="none" stroke="#111111" stroke-width="10" stroke-linecap="round" stroke-linejoin="round" />
    </g>
    <text x="694" y="416" font-size="11" fill="#4f5968" font-family="'Manrope', 'Segoe UI', sans-serif">48px</text>
    <g transform="translate(618 403) scale(0.48)">
      <circle cx="50" cy="50" r="38" fill="none" stroke="#111111" stroke-width="10" />
      <path d="M39.2669 28.5337 V71.4663 H60.7331" fill="none" stroke="#111111" stroke-width="10" stroke-linecap="round" stroke-linejoin="round" />
    </g>
    <text x="694" y="452" font-size="11" fill="#4f5968" font-family="'Manrope', 'Segoe UI', sans-serif">96px</text>
    <g transform="translate(594 439) scale(0.96)">
      <circle cx="50" cy="50" r="38" fill="none" stroke="#111111" stroke-width="10" />
      <path d="M39.2669 28.5337 V71.4663 H60.7331" fill="none" stroke="#111111" stroke-width="10" stroke-linecap="round" stroke-linejoin="round" />
    </g>
    <text x="406" y="506" font-size="11" fill="#4f5968" font-family="'Manrope', 'Segoe UI', sans-serif">strokes c:10 l:10</text>
    <text x="406" y="520" font-size="11" fill="#4f5968" font-family="'Manrope', 'Segoe UI', sans-serif">usable r:28.0 inset r:24.0</text>
  </g>
  <g>
    <rect x="748" y="286" width="360" height="258" rx="16" fill="#ffffff" stroke="#dce2ec" />
    <text x="766" y="317" font-size="14" font-weight="700" fill="#161d2b" font-family="'Space Grotesk', 'Avenir Next', sans-serif">c11 / l11</text>
    <text x="766" y="336" font-size="12" fill="#304159" font-family="'Manrope', 'Segoe UI', sans-serif">V3 inset / centerline-2x / centered</text>
    <rect x="760" y="358" width="336" height="128" rx="10" fill="#f7f9fc" stroke="#e5eaf2" />
    <rect x="772" y="368" width="166" height="108" rx="8" fill="#ffffff" stroke="#e5eaf2" />
    <g transform="translate(805 378) scale(0.84)">
      <circle cx="50" cy="50" r="38" fill="none" stroke="#111111" stroke-width="11" />
      <path d="M39.7141 29.4282 V70.5718 H60.2859" fill="none" stroke="#111111" stroke-width="11" stroke-linecap="round" stroke-linejoin="round" />
    </g>
    <text x="1054" y="380" font-size="11" fill="#4f5968" font-family="'Manrope', 'Segoe UI', sans-serif">24px</text>
    <g transform="translate(990 367) scale(0.24)">
      <circle cx="50" cy="50" r="38" fill="none" stroke="#111111" stroke-width="11" />
      <path d="M39.7141 29.4282 V70.5718 H60.2859" fill="none" stroke="#111111" stroke-width="11" stroke-linecap="round" stroke-linejoin="round" />
    </g>
    <text x="1054" y="416" font-size="11" fill="#4f5968" font-family="'Manrope', 'Segoe UI', sans-serif">48px</text>
    <g transform="translate(978 403) scale(0.48)">
      <circle cx="50" cy="50" r="38" fill="none" stroke="#111111" stroke-width="11" />
      <path d="M39.7141 29.4282 V70.5718 H60.2859" fill="none" stroke="#111111" stroke-width="11" stroke-linecap="round" stroke-linejoin="round" />
    </g>
    <text x="1054" y="452" font-size="11" fill="#4f5968" font-family="'Manrope', 'Segoe UI', sans-serif">96px</text>
    <g transform="translate(954 439) scale(0.96)">
      <circle cx="50" cy="50" r="38" fill="none" stroke="#111111" stroke-width="11" />
      <path d="M39.7141 29.4282 V70.5718 H60.2859" fill="none" stroke="#111111" stroke-width="11" stroke-linecap="round" stroke-linejoin="round" />
    </g>
    <text x="766" y="506" font-size="11" fill="#4f5968" font-family="'Manrope', 'Segoe UI', sans-serif">strokes c:11 l:11</text>
    <text x="766" y="520" font-size="11" fill="#4f5968" font-family="'Manrope', 'Segoe UI', sans-serif">usable r:27.0 inset r:23.0</text>
  </g>
  <g>
    <rect x="1108" y="286" width="360" height="258" rx="16" fill="#ffffff" stroke="#dce2ec" />
    <text x="1126" y="317" font-size="14" font-weight="700" fill="#161d2b" font-family="'Space Grotesk', 'Avenir Next', sans-serif">c12 / l12</text>
    <text x="1126" y="336" font-size="12" fill="#304159" font-family="'Manrope', 'Segoe UI', sans-serif">V3 inset / centerline-2x / centered</text>
    <rect x="1120" y="358" width="336" height="128" rx="10" fill="#f7f9fc" stroke="#e5eaf2" />
    <rect x="1132" y="368" width="166" height="108" rx="8" fill="#ffffff" stroke="#e5eaf2" />
    <g transform="translate(1165 378) scale(0.84)">
      <circle cx="50" cy="50" r="38" fill="none" stroke="#111111" stroke-width="12" />
      <path d="M40.1613 30.3226 V69.6774 H59.8387" fill="none" stroke="#111111" stroke-width="12" stroke-linecap="round" stroke-linejoin="round" />
    </g>
    <text x="1414" y="380" font-size="11" fill="#4f5968" font-family="'Manrope', 'Segoe UI', sans-serif">24px</text>
    <g transform="translate(1350 367) scale(0.24)">
      <circle cx="50" cy="50" r="38" fill="none" stroke="#111111" stroke-width="12" />
      <path d="M40.1613 30.3226 V69.6774 H59.8387" fill="none" stroke="#111111" stroke-width="12" stroke-linecap="round" stroke-linejoin="round" />
    </g>
    <text x="1414" y="416" font-size="11" fill="#4f5968" font-family="'Manrope', 'Segoe UI', sans-serif">48px</text>
    <g transform="translate(1338 403) scale(0.48)">
      <circle cx="50" cy="50" r="38" fill="none" stroke="#111111" stroke-width="12" />
      <path d="M40.1613 30.3226 V69.6774 H59.8387" fill="none" stroke="#111111" stroke-width="12" stroke-linecap="round" stroke-linejoin="round" />
    </g>
    <text x="1414" y="452" font-size="11" fill="#4f5968" font-family="'Manrope', 'Segoe UI', sans-serif">96px</text>
    <g transform="translate(1314 439) scale(0.96)">
      <circle cx="50" cy="50" r="38" fill="none" stroke="#111111" stroke-width="12" />
      <path d="M40.1613 30.3226 V69.6774 H59.8387" fill="none" stroke="#111111" stroke-width="12" stroke-linecap="round" stroke-linejoin="round" />
    </g>
    <text x="1126" y="506" font-size="11" fill="#4f5968" font-family="'Manrope', 'Segoe UI', sans-serif">strokes c:12 l:12</text>
    <text x="1126" y="520" font-size="11" fill="#4f5968" font-family="'Manrope', 'Segoe UI', sans-serif">usable r:26.0 inset r:22.0</text>
  </g>
  <g>
    <rect x="28" y="544" width="360" height="258" rx="16" fill="#ffffff" stroke="#dce2ec" />
    <text x="46" y="575" font-size="14" font-weight="700" fill="#161d2b" font-family="'Space Grotesk', 'Avenir Next', sans-serif">c13 / l13</text>
    <text x="46" y="594" font-size="12" fill="#304159" font-family="'Manrope', 'Segoe UI', sans-serif">V3 inset / centerline-2x / centered</text>
    <rect x="40" y="616" width="336" height="128" rx="10" fill="#f7f9fc" stroke="#e5eaf2" />
    <rect x="52" y="626" width="166" height="108" rx="8" fill="#ffffff" stroke="#e5eaf2" />
    <g transform="translate(85 636) scale(0.84)">
      <circle cx="50" cy="50" r="38" fill="none" stroke="#111111" stroke-width="13" />
      <path d="M40.6085 31.217 V68.783 H59.3915" fill="none" stroke="#111111" stroke-width="13" stroke-linecap="round" stroke-linejoin="round" />
    </g>
    <text x="334" y="638" font-size="11" fill="#4f5968" font-family="'Manrope', 'Segoe UI', sans-serif">24px</text>
    <g transform="translate(270 625) scale(0.24)">
      <circle cx="50" cy="50" r="38" fill="none" stroke="#111111" stroke-width="13" />
      <path d="M40.6085 31.217 V68.783 H59.3915" fill="none" stroke="#111111" stroke-width="13" stroke-linecap="round" stroke-linejoin="round" />
    </g>
    <text x="334" y="674" font-size="11" fill="#4f5968" font-family="'Manrope', 'Segoe UI', sans-serif">48px</text>
    <g transform="translate(258 661) scale(0.48)">
      <circle cx="50" cy="50" r="38" fill="none" stroke="#111111" stroke-width="13" />
      <path d="M40.6085 31.217 V68.783 H59.3915" fill="none" stroke="#111111" stroke-width="13" stroke-linecap="round" stroke-linejoin="round" />
    </g>
    <text x="334" y="710" font-size="11" fill="#4f5968" font-family="'Manrope', 'Segoe UI', sans-serif">96px</text>
    <g transform="translate(234 697) scale(0.96)">
      <circle cx="50" cy="50" r="38" fill="none" stroke="#111111" stroke-width="13" />
      <path d="M40.6085 31.217 V68.783 H59.3915" fill="none" stroke="#111111" stroke-width="13" stroke-linecap="round" stroke-linejoin="round" />
    </g>
    <text x="46" y="764" font-size="11" fill="#4f5968" font-family="'Manrope', 'Segoe UI', sans-serif">strokes c:13 l:13</text>
    <text x="46" y="778" font-size="11" fill="#4f5968" font-family="'Manrope', 'Segoe UI', sans-serif">usable r:25.0 inset r:21.0</text>
  </g>
  <g>
    <rect x="388" y="544" width="360" height="258" rx="16" fill="#ffffff" stroke="#dce2ec" />
    <text x="406" y="575" font-size="14" font-weight="700" fill="#161d2b" font-family="'Space Grotesk', 'Avenir Next', sans-serif">c14 / l14</text>
    <text x="406" y="594" font-size="12" fill="#304159" font-family="'Manrope', 'Segoe UI', sans-serif">V3 inset / centerline-2x / centered</text>
    <rect x="400" y="616" width="336" height="128" rx="10" fill="#f7f9fc" stroke="#e5eaf2" />
    <rect x="412" y="626" width="166" height="108" rx="8" fill="#ffffff" stroke="#e5eaf2" />
    <g transform="translate(445 636) scale(0.84)">
      <circle cx="50" cy="50" r="38" fill="none" stroke="#111111" stroke-width="14" />
      <path d="M41.0557 32.1115 V67.8885 H58.9443" fill="none" stroke="#111111" stroke-width="14" stroke-linecap="round" stroke-linejoin="round" />
    </g>
    <text x="694" y="638" font-size="11" fill="#4f5968" font-family="'Manrope', 'Segoe UI', sans-serif">24px</text>
    <g transform="translate(630 625) scale(0.24)">
      <circle cx="50" cy="50" r="38" fill="none" stroke="#111111" stroke-width="14" />
      <path d="M41.0557 32.1115 V67.8885 H58.9443" fill="none" stroke="#111111" stroke-width="14" stroke-linecap="round" stroke-linejoin="round" />
    </g>
    <text x="694" y="674" font-size="11" fill="#4f5968" font-family="'Manrope', 'Segoe UI', sans-serif">48px</text>
    <g transform="translate(618 661) scale(0.48)">
      <circle cx="50" cy="50" r="38" fill="none" stroke="#111111" stroke-width="14" />
      <path d="M41.0557 32.1115 V67.8885 H58.9443" fill="none" stroke="#111111" stroke-width="14" stroke-linecap="round" stroke-linejoin="round" />
    </g>
    <text x="694" y="710" font-size="11" fill="#4f5968" font-family="'Manrope', 'Segoe UI', sans-serif">96px</text>
    <g transform="translate(594 697) scale(0.96)">
      <circle cx="50" cy="50" r="38" fill="none" stroke="#111111" stroke-width="14" />
      <path d="M41.0557 32.1115 V67.8885 H58.9443" fill="none" stroke="#111111" stroke-width="14" stroke-linecap="round" stroke-linejoin="round" />
    </g>
    <text x="406" y="764" font-size="11" fill="#4f5968" font-family="'Manrope', 'Segoe UI', sans-serif">strokes c:14 l:14</text>
    <text x="406" y="778" font-size="11" fill="#4f5968" font-family="'Manrope', 'Segoe UI', sans-serif">usable r:24.0 inset r:20.0</text>
  </g>
  <g>
    <rect x="748" y="544" width="360" height="258" rx="16" fill="#ffffff" stroke="#dce2ec" />
    <text x="766" y="575" font-size="14" font-weight="700" fill="#161d2b" font-family="'Space Grotesk', 'Avenir Next', sans-serif">c15 / l15</text>
    <text x="766" y="594" font-size="12" fill="#304159" font-family="'Manrope', 'Segoe UI', sans-serif">V3 inset / centerline-2x / centered</text>
    <rect x="760" y="616" width="336" height="128" rx="10" fill="#f7f9fc" stroke="#e5eaf2" />
    <rect x="772" y="626" width="166" height="108" rx="8" fill="#ffffff" stroke="#e5eaf2" />
    <g transform="translate(805 636) scale(0.84)">
      <circle cx="50" cy="50" r="38" fill="none" stroke="#111111" stroke-width="15" />
      <path d="M41.5029 33.0059 V66.9941 H58.4971" fill="none" stroke="#111111" stroke-width="15" stroke-linecap="round" stroke-linejoin="round" />
    </g>
    <text x="1054" y="638" font-size="11" fill="#4f5968" font-family="'Manrope', 'Segoe UI', sans-serif">24px</text>
    <g transform="translate(990 625) scale(0.24)">
      <circle cx="50" cy="50" r="38" fill="none" stroke="#111111" stroke-width="15" />
      <path d="M41.5029 33.0059 V66.9941 H58.4971" fill="none" stroke="#111111" stroke-width="15" stroke-linecap="round" stroke-linejoin="round" />
    </g>
    <text x="1054" y="674" font-size="11" fill="#4f5968" font-family="'Manrope', 'Segoe UI', sans-serif">48px</text>
    <g transform="translate(978 661) scale(0.48)">
      <circle cx="50" cy="50" r="38" fill="none" stroke="#111111" stroke-width="15" />
      <path d="M41.5029 33.0059 V66.9941 H58.4971" fill="none" stroke="#111111" stroke-width="15" stroke-linecap="round" stroke-linejoin="round" />
    </g>
    <text x="1054" y="710" font-size="11" fill="#4f5968" font-family="'Manrope', 'Segoe UI', sans-serif">96px</text>
    <g transform="translate(954 697) scale(0.96)">
      <circle cx="50" cy="50" r="38" fill="none" stroke="#111111" stroke-width="15" />
      <path d="M41.5029 33.0059 V66.9941 H58.4971" fill="none" stroke="#111111" stroke-width="15" stroke-linecap="round" stroke-linejoin="round" />
    </g>
    <text x="766" y="764" font-size="11" fill="#4f5968" font-family="'Manrope', 'Segoe UI', sans-serif">strokes c:15 l:15</text>
    <text x="766" y="778" font-size="11" fill="#4f5968" font-family="'Manrope', 'Segoe UI', sans-serif">usable r:23.0 inset r:19.0</text>
  </g>
</svg>
