<svg xmlns="http://www.w3.org/2000/svg" width="1416" height="746" viewBox="0 0 1416 746" role="img" aria-labelledby="title desc">
  <title id="title">OpenLinks logo variant comparison</title>
  <desc id="desc">Comparison grid for OpenLinks circle-plus-L mark variants across geometry and stroke modes.</desc>
  <rect width="1416" height="746" fill="#f1f4f9" />
  <g>
    <rect x="28" y="28" width="340" height="230" rx="16" fill="#ffffff" stroke="#dce2ec" />
    <text x="46" y="58" font-size="15" font-weight="700" fill="#161d2b" font-family="'Space Grotesk', 'Avenir Next', sans-serif">strict / mono / square</text>
    <rect x="40" y="72" width="316" height="174" rx="10" fill="#f7f9fc" stroke="#e5eaf2" />
    <rect x="52" y="84" width="160" height="148" rx="8" fill="#ffffff" stroke="#e5eaf2" />
    <g transform="translate(84 110) scale(0.96)">
      <circle cx="50" cy="50" r="38" fill="none" stroke="#111111" stroke-width="6" />
      <path d="M12 12 V88 H50" fill="none" stroke="#111111" stroke-width="6" stroke-linecap="butt" stroke-linejoin="miter" />
    </g>
    <text x="330" y="102" font-size="12" fill="#4f5968" font-family="'Manrope', 'Segoe UI', sans-serif">24px</text>
    <g transform="translate(264 86) scale(0.24)">
      <circle cx="50" cy="50" r="38" fill="none" stroke="#111111" stroke-width="6" />
      <path d="M12 12 V88 H50" fill="none" stroke="#111111" stroke-width="6" stroke-linecap="butt" stroke-linejoin="miter" />
    </g>
    <text x="330" y="148" font-size="12" fill="#4f5968" font-family="'Manrope', 'Segoe UI', sans-serif">48px</text>
    <g transform="translate(252 132) scale(0.48)">
      <circle cx="50" cy="50" r="38" fill="none" stroke="#111111" stroke-width="6" />
      <path d="M12 12 V88 H50" fill="none" stroke="#111111" stroke-width="6" stroke-linecap="butt" stroke-linejoin="miter" />
    </g>
    <text x="330" y="194" font-size="12" fill="#4f5968" font-family="'Manrope', 'Segoe UI', sans-serif">96px</text>
    <g transform="translate(228 178) scale(0.96)">
      <circle cx="50" cy="50" r="38" fill="none" stroke="#111111" stroke-width="6" />
      <path d="M12 12 V88 H50" fill="none" stroke="#111111" stroke-width="6" stroke-linecap="butt" stroke-linejoin="miter" />
    </g>
  </g>
  <g>
    <rect x="368" y="28" width="340" height="230" rx="16" fill="#ffffff" stroke="#dce2ec" />
    <text x="386" y="58" font-size="15" font-weight="700" fill="#161d2b" font-family="'Space Grotesk', 'Avenir Next', sans-serif">strict / mono / round</text>
    <rect x="380" y="72" width="316" height="174" rx="10" fill="#f7f9fc" stroke="#e5eaf2" />
    <rect x="392" y="84" width="160" height="148" rx="8" fill="#ffffff" stroke="#e5eaf2" />
    <g transform="translate(424 110) scale(0.96)">
      <circle cx="50" cy="50" r="38" fill="none" stroke="#111111" stroke-width="6" />
      <path d="M12 12 V88 H50" fill="none" stroke="#111111" stroke-width="6" stroke-linecap="round" stroke-linejoin="round" />
    </g>
    <text x="670" y="102" font-size="12" fill="#4f5968" font-family="'Manrope', 'Segoe UI', sans-serif">24px</text>
    <g transform="translate(604 86) scale(0.24)">
      <circle cx="50" cy="50" r="38" fill="none" stroke="#111111" stroke-width="6" />
      <path d="M12 12 V88 H50" fill="none" stroke="#111111" stroke-width="6" stroke-linecap="round" stroke-linejoin="round" />
    </g>
    <text x="670" y="148" font-size="12" fill="#4f5968" font-family="'Manrope', 'Segoe UI', sans-serif">48px</text>
    <g transform="translate(592 132) scale(0.48)">
      <circle cx="50" cy="50" r="38" fill="none" stroke="#111111" stroke-width="6" />
      <path d="M12 12 V88 H50" fill="none" stroke="#111111" stroke-width="6" stroke-linecap="round" stroke-linejoin="round" />
    </g>
    <text x="670" y="194" font-size="12" fill="#4f5968" font-family="'Manrope', 'Segoe UI', sans-serif">96px</text>
    <g transform="translate(568 178) scale(0.96)">
      <circle cx="50" cy="50" r="38" fill="none" stroke="#111111" stroke-width="6" />
      <path d="M12 12 V88 H50" fill="none" stroke="#111111" stroke-width="6" stroke-linecap="round" stroke-linejoin="round" />
    </g>
  </g>
  <g>
    <rect x="708" y="28" width="340" height="230" rx="16" fill="#ffffff" stroke="#dce2ec" />
    <text x="726" y="58" font-size="15" font-weight="700" fill="#161d2b" font-family="'Space Grotesk', 'Avenir Next', sans-serif">strict / l-heavy / square</text>
    <rect x="720" y="72" width="316" height="174" rx="10" fill="#f7f9fc" stroke="#e5eaf2" />
    <rect x="732" y="84" width="160" height="148" rx="8" fill="#ffffff" stroke="#e5eaf2" />
    <g transform="translate(764 110) scale(0.96)">
      <circle cx="50" cy="50" r="38" fill="none" stroke="#111111" stroke-width="5" />
      <path d="M12 12 V88 H50" fill="none" stroke="#111111" stroke-width="8" stroke-linecap="butt" stroke-linejoin="miter" />
    </g>
    <text x="1010" y="102" font-size="12" fill="#4f5968" font-family="'Manrope', 'Segoe UI', sans-serif">24px</text>
    <g transform="translate(944 86) scale(0.24)">
      <circle cx="50" cy="50" r="38" fill="none" stroke="#111111" stroke-width="5" />
      <path d="M12 12 V88 H50" fill="none" stroke="#111111" stroke-width="8" stroke-linecap="butt" stroke-linejoin="miter" />
    </g>
    <text x="1010" y="148" font-size="12" fill="#4f5968" font-family="'Manrope', 'Segoe UI', sans-serif">48px</text>
    <g transform="translate(932 132) scale(0.48)">
      <circle cx="50" cy="50" r="38" fill="none" stroke="#111111" stroke-width="5" />
      <path d="M12 12 V88 H50" fill="none" stroke="#111111" stroke-width="8" stroke-linecap="butt" stroke-linejoin="miter" />
    </g>
    <text x="1010" y="194" font-size="12" fill="#4f5968" font-family="'Manrope', 'Segoe UI', sans-serif">96px</text>
    <g transform="translate(908 178) scale(0.96)">
      <circle cx="50" cy="50" r="38" fill="none" stroke="#111111" stroke-width="5" />
      <path d="M12 12 V88 H50" fill="none" stroke="#111111" stroke-width="8" stroke-linecap="butt" stroke-linejoin="miter" />
    </g>
  </g>
  <g>
    <rect x="1048" y="28" width="340" height="230" rx="16" fill="#ffffff" stroke="#dce2ec" />
    <text x="1066" y="58" font-size="15" font-weight="700" fill="#161d2b" font-family="'Space Grotesk', 'Avenir Next', sans-serif">strict / l-heavy / round</text>
    <rect x="1060" y="72" width="316" height="174" rx="10" fill="#f7f9fc" stroke="#e5eaf2" />
    <rect x="1072" y="84" width="160" height="148" rx="8" fill="#ffffff" stroke="#e5eaf2" />
    <g transform="translate(1104 110) scale(0.96)">
      <circle cx="50" cy="50" r="38" fill="none" stroke="#111111" stroke-width="5" />
      <path d="M12 12 V88 H50" fill="none" stroke="#111111" stroke-width="8" stroke-linecap="round" stroke-linejoin="round" />
    </g>
    <text x="1350" y="102" font-size="12" fill="#4f5968" font-family="'Manrope', 'Segoe UI', sans-serif">24px</text>
    <g transform="translate(1284 86) scale(0.24)">
      <circle cx="50" cy="50" r="38" fill="none" stroke="#111111" stroke-width="5" />
      <path d="M12 12 V88 H50" fill="none" stroke="#111111" stroke-width="8" stroke-linecap="round" stroke-linejoin="round" />
    </g>
    <text x="1350" y="148" font-size="12" fill="#4f5968" font-family="'Manrope', 'Segoe UI', sans-serif">48px</text>
    <g transform="translate(1272 132) scale(0.48)">
      <circle cx="50" cy="50" r="38" fill="none" stroke="#111111" stroke-width="5" />
      <path d="M12 12 V88 H50" fill="none" stroke="#111111" stroke-width="8" stroke-linecap="round" stroke-linejoin="round" />
    </g>
    <text x="1350" y="194" font-size="12" fill="#4f5968" font-family="'Manrope', 'Segoe UI', sans-serif">96px</text>
    <g transform="translate(1248 178) scale(0.96)">
      <circle cx="50" cy="50" r="38" fill="none" stroke="#111111" stroke-width="5" />
      <path d="M12 12 V88 H50" fill="none" stroke="#111111" stroke-width="8" stroke-linecap="round" stroke-linejoin="round" />
    </g>
  </g>
  <g>
    <rect x="28" y="258" width="340" height="230" rx="16" fill="#ffffff" stroke="#dce2ec" />
    <text x="46" y="288" font-size="15" font-weight="700" fill="#161d2b" font-family="'Space Grotesk', 'Avenir Next', sans-serif">strict / circle-heavy / square</text>
    <rect x="40" y="302" width="316" height="174" rx="10" fill="#f7f9fc" stroke="#e5eaf2" />
    <rect x="52" y="314" width="160" height="148" rx="8" fill="#ffffff" stroke="#e5eaf2" />
    <g transform="translate(84 340) scale(0.96)">
      <circle cx="50" cy="50" r="38" fill="none" stroke="#111111" stroke-width="8" />
      <path d="M12 12 V88 H50" fill="none" stroke="#111111" stroke-width="5" stroke-linecap="butt" stroke-linejoin="miter" />
    </g>
    <text x="330" y="332" font-size="12" fill="#4f5968" font-family="'Manrope', 'Segoe UI', sans-serif">24px</text>
    <g transform="translate(264 316) scale(0.24)">
      <circle cx="50" cy="50" r="38" fill="none" stroke="#111111" stroke-width="8" />
      <path d="M12 12 V88 H50" fill="none" stroke="#111111" stroke-width="5" stroke-linecap="butt" stroke-linejoin="miter" />
    </g>
    <text x="330" y="378" font-size="12" fill="#4f5968" font-family="'Manrope', 'Segoe UI', sans-serif">48px</text>
    <g transform="translate(252 362) scale(0.48)">
      <circle cx="50" cy="50" r="38" fill="none" stroke="#111111" stroke-width="8" />
      <path d="M12 12 V88 H50" fill="none" stroke="#111111" stroke-width="5" stroke-linecap="butt" stroke-linejoin="miter" />
    </g>
    <text x="330" y="424" font-size="12" fill="#4f5968" font-family="'Manrope', 'Segoe UI', sans-serif">96px</text>
    <g transform="translate(228 408) scale(0.96)">
      <circle cx="50" cy="50" r="38" fill="none" stroke="#111111" stroke-width="8" />
      <path d="M12 12 V88 H50" fill="none" stroke="#111111" stroke-width="5" stroke-linecap="butt" stroke-linejoin="miter" />
    </g>
  </g>
  <g>
    <rect x="368" y="258" width="340" height="230" rx="16" fill="#ffffff" stroke="#dce2ec" />
    <text x="386" y="288" font-size="15" font-weight="700" fill="#161d2b" font-family="'Space Grotesk', 'Avenir Next', sans-serif">strict / circle-heavy / round</text>
    <rect x="380" y="302" width="316" height="174" rx="10" fill="#f7f9fc" stroke="#e5eaf2" />
    <rect x="392" y="314" width="160" height="148" rx="8" fill="#ffffff" stroke="#e5eaf2" />
    <g transform="translate(424 340) scale(0.96)">
      <circle cx="50" cy="50" r="38" fill="none" stroke="#111111" stroke-width="8" />
      <path d="M12 12 V88 H50" fill="none" stroke="#111111" stroke-width="5" stroke-linecap="round" stroke-linejoin="round" />
    </g>
    <text x="670" y="332" font-size="12" fill="#4f5968" font-family="'Manrope', 'Segoe UI', sans-serif">24px</text>
    <g transform="translate(604 316) scale(0.24)">
      <circle cx="50" cy="50" r="38" fill="none" stroke="#111111" stroke-width="8" />
      <path d="M12 12 V88 H50" fill="none" stroke="#111111" stroke-width="5" stroke-linecap="round" stroke-linejoin="round" />
    </g>
    <text x="670" y="378" font-size="12" fill="#4f5968" font-family="'Manrope', 'Segoe UI', sans-serif">48px</text>
    <g transform="translate(592 362) scale(0.48)">
      <circle cx="50" cy="50" r="38" fill="none" stroke="#111111" stroke-width="8" />
      <path d="M12 12 V88 H50" fill="none" stroke="#111111" stroke-width="5" stroke-linecap="round" stroke-linejoin="round" />
    </g>
    <text x="670" y="424" font-size="12" fill="#4f5968" font-family="'Manrope', 'Segoe UI', sans-serif">96px</text>
    <g transform="translate(568 408) scale(0.96)">
      <circle cx="50" cy="50" r="38" fill="none" stroke="#111111" stroke-width="8" />
      <path d="M12 12 V88 H50" fill="none" stroke="#111111" stroke-width="5" stroke-linecap="round" stroke-linejoin="round" />
    </g>
  </g>
  <g>
    <rect x="708" y="258" width="340" height="230" rx="16" fill="#ffffff" stroke="#dce2ec" />
    <text x="726" y="288" font-size="15" font-weight="700" fill="#161d2b" font-family="'Space Grotesk', 'Avenir Next', sans-serif">optical / mono / square</text>
    <rect x="720" y="302" width="316" height="174" rx="10" fill="#f7f9fc" stroke="#e5eaf2" />
    <rect x="732" y="314" width="160" height="148" rx="8" fill="#ffffff" stroke="#e5eaf2" />
    <g transform="translate(764 340) scale(0.96)">
      <circle cx="50" cy="50" r="38" fill="none" stroke="#111111" stroke-width="6" />
      <path d="M13 12 V87 H49" fill="none" stroke="#111111" stroke-width="6" stroke-linecap="butt" stroke-linejoin="miter" />
    </g>
    <text x="1010" y="332" font-size="12" fill="#4f5968" font-family="'Manrope', 'Segoe UI', sans-serif">24px</text>
    <g transform="translate(944 316) scale(0.24)">
      <circle cx="50" cy="50" r="38" fill="none" stroke="#111111" stroke-width="6" />
      <path d="M13 12 V87 H49" fill="none" stroke="#111111" stroke-width="6" stroke-linecap="butt" stroke-linejoin="miter" />
    </g>
    <text x="1010" y="378" font-size="12" fill="#4f5968" font-family="'Manrope', 'Segoe UI', sans-serif">48px</text>
    <g transform="translate(932 362) scale(0.48)">
      <circle cx="50" cy="50" r="38" fill="none" stroke="#111111" stroke-width="6" />
      <path d="M13 12 V87 H49" fill="none" stroke="#111111" stroke-width="6" stroke-linecap="butt" stroke-linejoin="miter" />
    </g>
    <text x="1010" y="424" font-size="12" fill="#4f5968" font-family="'Manrope', 'Segoe UI', sans-serif">96px</text>
    <g transform="translate(908 408) scale(0.96)">
      <circle cx="50" cy="50" r="38" fill="none" stroke="#111111" stroke-width="6" />
      <path d="M13 12 V87 H49" fill="none" stroke="#111111" stroke-width="6" stroke-linecap="butt" stroke-linejoin="miter" />
    </g>
  </g>
  <g>
    <rect x="1048" y="258" width="340" height="230" rx="16" fill="#ffffff" stroke="#dce2ec" />
    <text x="1066" y="288" font-size="15" font-weight="700" fill="#161d2b" font-family="'Space Grotesk', 'Avenir Next', sans-serif">optical / mono / round</text>
    <rect x="1060" y="302" width="316" height="174" rx="10" fill="#f7f9fc" stroke="#e5eaf2" />
    <rect x="1072" y="314" width="160" height="148" rx="8" fill="#ffffff" stroke="#e5eaf2" />
    <g transform="translate(1104 340) scale(0.96)">
      <circle cx="50" cy="50" r="38" fill="none" stroke="#111111" stroke-width="6" />
      <path d="M13 12 V87 H49" fill="none" stroke="#111111" stroke-width="6" stroke-linecap="round" stroke-linejoin="round" />
    </g>
    <text x="1350" y="332" font-size="12" fill="#4f5968" font-family="'Manrope', 'Segoe UI', sans-serif">24px</text>
    <g transform="translate(1284 316) scale(0.24)">
      <circle cx="50" cy="50" r="38" fill="none" stroke="#111111" stroke-width="6" />
      <path d="M13 12 V87 H49" fill="none" stroke="#111111" stroke-width="6" stroke-linecap="round" stroke-linejoin="round" />
    </g>
    <text x="1350" y="378" font-size="12" fill="#4f5968" font-family="'Manrope', 'Segoe UI', sans-serif">48px</text>
    <g transform="translate(1272 362) scale(0.48)">
      <circle cx="50" cy="50" r="38" fill="none" stroke="#111111" stroke-width="6" />
      <path d="M13 12 V87 H49" fill="none" stroke="#111111" stroke-width="6" stroke-linecap="round" stroke-linejoin="round" />
    </g>
    <text x="1350" y="424" font-size="12" fill="#4f5968" font-family="'Manrope', 'Segoe UI', sans-serif">96px</text>
    <g transform="translate(1248 408) scale(0.96)">
      <circle cx="50" cy="50" r="38" fill="none" stroke="#111111" stroke-width="6" />
      <path d="M13 12 V87 H49" fill="none" stroke="#111111" stroke-width="6" stroke-linecap="round" stroke-linejoin="round" />
    </g>
  </g>
  <g>
    <rect x="28" y="488" width="340" height="230" rx="16" fill="#ffffff" stroke="#dce2ec" />
    <text x="46" y="518" font-size="15" font-weight="700" fill="#161d2b" font-family="'Space Grotesk', 'Avenir Next', sans-serif">optical / l-heavy / square</text>
    <rect x="40" y="532" width="316" height="174" rx="10" fill="#f7f9fc" stroke="#e5eaf2" />
    <rect x="52" y="544" width="160" height="148" rx="8" fill="#ffffff" stroke="#e5eaf2" />
    <g transform="translate(84 570) scale(0.96)">
      <circle cx="50" cy="50" r="38" fill="none" stroke="#111111" stroke-width="5" />
      <path d="M13 12 V87 H49" fill="none" stroke="#111111" stroke-width="8" stroke-linecap="butt" stroke-linejoin="miter" />
    </g>
    <text x="330" y="562" font-size="12" fill="#4f5968" font-family="'Manrope', 'Segoe UI', sans-serif">24px</text>
    <g transform="translate(264 546) scale(0.24)">
      <circle cx="50" cy="50" r="38" fill="none" stroke="#111111" stroke-width="5" />
      <path d="M13 12 V87 H49" fill="none" stroke="#111111" stroke-width="8" stroke-linecap="butt" stroke-linejoin="miter" />
    </g>
    <text x="330" y="608" font-size="12" fill="#4f5968" font-family="'Manrope', 'Segoe UI', sans-serif">48px</text>
    <g transform="translate(252 592) scale(0.48)">
      <circle cx="50" cy="50" r="38" fill="none" stroke="#111111" stroke-width="5" />
      <path d="M13 12 V87 H49" fill="none" stroke="#111111" stroke-width="8" stroke-linecap="butt" stroke-linejoin="miter" />
    </g>
    <text x="330" y="654" font-size="12" fill="#4f5968" font-family="'Manrope', 'Segoe UI', sans-serif">96px</text>
    <g transform="translate(228 638) scale(0.96)">
      <circle cx="50" cy="50" r="38" fill="none" stroke="#111111" stroke-width="5" />
      <path d="M13 12 V87 H49" fill="none" stroke="#111111" stroke-width="8" stroke-linecap="butt" stroke-linejoin="miter" />
    </g>
  </g>
  <g>
    <rect x="368" y="488" width="340" height="230" rx="16" fill="#ffffff" stroke="#dce2ec" />
    <text x="386" y="518" font-size="15" font-weight="700" fill="#161d2b" font-family="'Space Grotesk', 'Avenir Next', sans-serif">optical / l-heavy / round</text>
    <rect x="380" y="532" width="316" height="174" rx="10" fill="#f7f9fc" stroke="#e5eaf2" />
    <rect x="392" y="544" width="160" height="148" rx="8" fill="#ffffff" stroke="#e5eaf2" />
    <g transform="translate(424 570) scale(0.96)">
      <circle cx="50" cy="50" r="38" fill="none" stroke="#111111" stroke-width="5" />
      <path d="M13 12 V87 H49" fill="none" stroke="#111111" stroke-width="8" stroke-linecap="round" stroke-linejoin="round" />
    </g>
    <text x="670" y="562" font-size="12" fill="#4f5968" font-family="'Manrope', 'Segoe UI', sans-serif">24px</text>
    <g transform="translate(604 546) scale(0.24)">
      <circle cx="50" cy="50" r="38" fill="none" stroke="#111111" stroke-width="5" />
      <path d="M13 12 V87 H49" fill="none" stroke="#111111" stroke-width="8" stroke-linecap="round" stroke-linejoin="round" />
    </g>
    <text x="670" y="608" font-size="12" fill="#4f5968" font-family="'Manrope', 'Segoe UI', sans-serif">48px</text>
    <g transform="translate(592 592) scale(0.48)">
      <circle cx="50" cy="50" r="38" fill="none" stroke="#111111" stroke-width="5" />
      <path d="M13 12 V87 H49" fill="none" stroke="#111111" stroke-width="8" stroke-linecap="round" stroke-linejoin="round" />
    </g>
    <text x="670" y="654" font-size="12" fill="#4f5968" font-family="'Manrope', 'Segoe UI', sans-serif">96px</text>
    <g transform="translate(568 638) scale(0.96)">
      <circle cx="50" cy="50" r="38" fill="none" stroke="#111111" stroke-width="5" />
      <path d="M13 12 V87 H49" fill="none" stroke="#111111" stroke-width="8" stroke-linecap="round" stroke-linejoin="round" />
    </g>
  </g>
  <g>
    <rect x="708" y="488" width="340" height="230" rx="16" fill="#ffffff" stroke="#dce2ec" />
    <text x="726" y="518" font-size="15" font-weight="700" fill="#161d2b" font-family="'Space Grotesk', 'Avenir Next', sans-serif">optical / circle-heavy / square</text>
    <rect x="720" y="532" width="316" height="174" rx="10" fill="#f7f9fc" stroke="#e5eaf2" />
    <rect x="732" y="544" width="160" height="148" rx="8" fill="#ffffff" stroke="#e5eaf2" />
    <g transform="translate(764 570) scale(0.96)">
      <circle cx="50" cy="50" r="38" fill="none" stroke="#111111" stroke-width="8" />
      <path d="M13 12 V87 H49" fill="none" stroke="#111111" stroke-width="5" stroke-linecap="butt" stroke-linejoin="miter" />
    </g>
    <text x="1010" y="562" font-size="12" fill="#4f5968" font-family="'Manrope', 'Segoe UI', sans-serif">24px</text>
    <g transform="translate(944 546) scale(0.24)">
      <circle cx="50" cy="50" r="38" fill="none" stroke="#111111" stroke-width="8" />
      <path d="M13 12 V87 H49" fill="none" stroke="#111111" stroke-width="5" stroke-linecap="butt" stroke-linejoin="miter" />
    </g>
    <text x="1010" y="608" font-size="12" fill="#4f5968" font-family="'Manrope', 'Segoe UI', sans-serif">48px</text>
    <g transform="translate(932 592) scale(0.48)">
      <circle cx="50" cy="50" r="38" fill="none" stroke="#111111" stroke-width="8" />
      <path d="M13 12 V87 H49" fill="none" stroke="#111111" stroke-width="5" stroke-linecap="butt" stroke-linejoin="miter" />
    </g>
    <text x="1010" y="654" font-size="12" fill="#4f5968" font-family="'Manrope', 'Segoe UI', sans-serif">96px</text>
    <g transform="translate(908 638) scale(0.96)">
      <circle cx="50" cy="50" r="38" fill="none" stroke="#111111" stroke-width="8" />
      <path d="M13 12 V87 H49" fill="none" stroke="#111111" stroke-width="5" stroke-linecap="butt" stroke-linejoin="miter" />
    </g>
  </g>
  <g>
    <rect x="1048" y="488" width="340" height="230" rx="16" fill="#ffffff" stroke="#dce2ec" />
    <text x="1066" y="518" font-size="15" font-weight="700" fill="#161d2b" font-family="'Space Grotesk', 'Avenir Next', sans-serif">optical / circle-heavy / round</text>
    <rect x="1060" y="532" width="316" height="174" rx="10" fill="#f7f9fc" stroke="#e5eaf2" />
    <rect x="1072" y="544" width="160" height="148" rx="8" fill="#ffffff" stroke="#e5eaf2" />
    <g transform="translate(1104 570) scale(0.96)">
      <circle cx="50" cy="50" r="38" fill="none" stroke="#111111" stroke-width="8" />
      <path d="M13 12 V87 H49" fill="none" stroke="#111111" stroke-width="5" stroke-linecap="round" stroke-linejoin="round" />
    </g>
    <text x="1350" y="562" font-size="12" fill="#4f5968" font-family="'Manrope', 'Segoe UI', sans-serif">24px</text>
    <g transform="translate(1284 546) scale(0.24)">
      <circle cx="50" cy="50" r="38" fill="none" stroke="#111111" stroke-width="8" />
      <path d="M13 12 V87 H49" fill="none" stroke="#111111" stroke-width="5" stroke-linecap="round" stroke-linejoin="round" />
    </g>
    <text x="1350" y="608" font-size="12" fill="#4f5968" font-family="'Manrope', 'Segoe UI', sans-serif">48px</text>
    <g transform="translate(1272 592) scale(0.48)">
      <circle cx="50" cy="50" r="38" fill="none" stroke="#111111" stroke-width="8" />
      <path d="M13 12 V87 H49" fill="none" stroke="#111111" stroke-width="5" stroke-linecap="round" stroke-linejoin="round" />
    </g>
    <text x="1350" y="654" font-size="12" fill="#4f5968" font-family="'Manrope', 'Segoe UI', sans-serif">96px</text>
    <g transform="translate(1248 638) scale(0.96)">
      <circle cx="50" cy="50" r="38" fill="none" stroke="#111111" stroke-width="8" />
      <path d="M13 12 V87 H49" fill="none" stroke="#111111" stroke-width="5" stroke-linecap="round" stroke-linejoin="round" />
    </g>
  </g>
</svg>
